<svg width="299" height="91" viewBox="0 0 299 91" fill="none" xmlns="http://www.w3.org/2000/svg">
<path d="M51.744 18C55.84 18 58.976 19.408 61.152 22.224C63.328 24.976 64.416 28.912 64.416 34.032V66H56.256V35.184C56.256 28.784 54.208 25.584 50.112 25.584C48.32 25.584 46.464 26.288 44.544 27.696C42.688 29.104 41.056 31.024 39.648 33.456V66H31.488V35.184C31.488 28.784 29.44 25.584 25.344 25.584C23.552 25.584 21.696 26.288 19.776 27.696C17.92 29.104 16.288 31.024 14.88 33.456V66H6.72V19.152H14.4V26.16C16.064 23.536 17.984 21.52 20.16 20.112C22.336 18.704 24.608 18 26.976 18C29.92 18 32.384 18.768 34.368 20.304C36.352 21.776 37.792 23.952 38.688 26.832C40.416 23.952 42.4 21.776 44.64 20.304C46.88 18.768 49.248 18 51.744 18ZM112.052 19.152L90.5483 83.76H82.3883L88.5323 66H85.4603L72.1163 19.152H81.0443L91.1243 60.144L103.604 19.152H112.052ZM127.369 25.392C129.033 23.024 130.953 21.2 133.129 19.92C135.305 18.64 137.577 18 139.945 18C143.913 18 146.985 19.408 149.161 22.224C151.337 24.976 152.425 29.008 152.425 34.32V49.488C152.425 55.312 151.049 59.728 148.297 62.736C145.545 65.68 141.289 67.152 135.529 67.152C129.897 67.152 125.769 65.712 123.145 62.832C120.521 59.952 119.209 55.568 119.209 49.68V0.431997H127.369V25.392ZM138.025 25.296C136.169 25.296 134.281 26 132.361 27.408C130.441 28.816 128.777 30.736 127.369 33.168V50.64C127.369 53.776 128.073 56.176 129.481 57.84C130.953 59.504 132.969 60.336 135.529 60.336C141.353 60.336 144.265 57.04 144.265 50.448V35.472C144.265 28.688 142.185 25.296 138.025 25.296ZM180.812 18C186.508 18 190.732 19.536 193.484 22.608C196.3 25.616 197.708 29.904 197.708 35.472V49.68C197.708 55.248 196.3 59.568 193.484 62.64C190.732 65.648 186.508 67.152 180.812 67.152C175.116 67.152 170.86 65.648 168.044 62.64C165.292 59.568 163.916 55.248 163.916 49.68V35.472C163.916 29.904 165.292 25.616 168.044 22.608C170.86 19.536 175.116 18 180.812 18ZM180.812 24.816C178.06 24.816 175.916 25.68 174.38 27.408C172.844 29.136 172.076 31.6 172.076 34.8V50.352C172.076 53.552 172.844 56.016 174.38 57.744C175.916 59.472 178.06 60.336 180.812 60.336C183.564 60.336 185.708 59.472 187.244 57.744C188.78 56.016 189.548 53.552 189.548 50.352V34.704C189.548 31.504 188.78 29.072 187.244 27.408C185.708 25.68 183.564 24.816 180.812 24.816ZM226.094 18C231.79 18 236.014 19.536 238.766 22.608C241.582 25.616 242.99 29.904 242.99 35.472V49.68C242.99 55.248 241.582 59.568 238.766 62.64C236.014 65.648 231.79 67.152 226.094 67.152C220.398 67.152 216.142 65.648 213.326 62.64C210.574 59.568 209.198 55.248 209.198 49.68V35.472C209.198 29.904 210.574 25.616 213.326 22.608C216.142 19.536 220.398 18 226.094 18ZM226.094 24.816C223.342 24.816 221.198 25.68 219.662 27.408C218.126 29.136 217.358 31.6 217.358 34.8V50.352C217.358 53.552 218.126 56.016 219.662 57.744C221.198 59.472 223.342 60.336 226.094 60.336C228.846 60.336 230.99 59.472 232.526 57.744C234.062 56.016 234.83 53.552 234.83 50.352V34.704C234.83 31.504 234.062 29.072 232.526 27.408C230.99 25.68 228.846 24.816 226.094 24.816ZM263.599 0.431997V39.696L278.959 19.152H288.079L272.143 39.696L289.231 66H279.439L263.599 40.848V66H255.439V0.431997H263.599Z" fill="#F7FAF8"/>
<path fill-rule="evenodd" clip-rule="evenodd" d="M22.1887 33V26.5H32.3724C31.653 27.3829 30.9785 28.3682 30.3487 29.456V33H22.1887ZM55.1167 33H46.9567V31.184C46.9567 29.3638 46.7911 27.8025 46.4598 26.5H57.1404C56.421 27.3829 55.7465 28.3682 55.1167 29.456V33ZM79.8847 33H71.7247V31.184C71.7247 29.3638 71.5591 27.8025 71.2278 26.5H79.6909C79.8201 27.607 79.8847 28.7844 79.8847 30.032V33ZM294.745 26.5L289.703 33H281.083L285.943 26.5H294.745ZM270.907 26.5H279.067V33H270.907V26.5ZM258.022 26.5C258.313 28.0251 258.458 29.6824 258.458 31.472V33H250.298V30.704C250.298 29.1128 250.108 27.7114 249.729 26.5H258.022ZM225.093 26.5C224.808 28.0251 224.666 29.6824 224.666 31.472V33H232.826V30.8C232.826 29.1774 233.024 27.7441 233.419 26.5H225.093ZM212.741 26.5C213.032 28.0251 213.177 29.6824 213.177 31.472V33H205.017V30.704C205.017 29.1128 204.827 27.7114 204.447 26.5H212.741ZM179.811 26.5C179.527 28.0251 179.385 29.6824 179.385 31.472V33H187.545V30.8C187.545 29.1774 187.742 27.7441 188.137 26.5H179.811ZM167.681 26.5C167.822 27.6898 167.893 28.9632 167.893 30.32V33H159.733V31.472C159.733 29.5394 159.565 27.8821 159.227 26.5H167.681ZM134.677 26.5V33H142.837V29.168C143.4 28.1971 144.003 27.3077 144.646 26.5H134.677ZM123.744 26.5L121.58 33H113.639L115.618 26.5H123.744ZM90.8173 26.5H99.3035L100.902 33H92.6687L90.8173 26.5Z" fill="white"/>
<path fill-rule="evenodd" clip-rule="evenodd" d="M22.1887 52.5V46H30.3487V52.5H22.1887ZM55.1167 52.5H46.9567V46H55.1167V52.5ZM79.8847 52.5H71.7247V46H79.8847V52.5ZM279.067 52.5H270.907V46H279.067V52.5ZM298.528 52.5H288.925L284.831 46H294.305L298.528 52.5ZM258.457 46C258.433 48.4032 258.143 50.5699 257.585 52.5H248.895C249.83 50.8991 250.298 48.8497 250.298 46.352V46H258.457ZM224.668 46C224.691 48.4032 224.975 50.5699 225.519 52.5H234.23C233.294 50.8991 232.826 48.8497 232.826 46.352V46H224.668ZM213.175 46C213.152 48.4032 212.861 50.5699 212.304 52.5H203.613C204.549 50.8991 205.017 48.8497 205.017 46.352V46H213.175ZM179.386 46C179.41 48.4032 179.693 50.5699 180.238 52.5H188.949C188.013 50.8991 187.545 48.8497 187.545 46.352V46H179.386ZM167.89 46C167.856 48.416 167.578 50.5827 167.056 52.5H158.491C159.319 50.9515 159.733 48.9342 159.733 46.448V46H167.89ZM134.679 46C134.699 48.427 134.946 50.5937 135.42 52.5H144.05C143.242 50.9691 142.837 49.0157 142.837 46.64V46H134.679ZM117.254 46L115.09 52.5H107.702L109.681 46H117.254ZM96.3716 46H104.099L105.697 52.5H98.223L96.3716 46Z" fill="white"/>
<path fill-rule="evenodd" clip-rule="evenodd" d="M100.542 72L102.79 65.5H110.763L108.6 72H100.542Z" fill="white"/>
<path fill-rule="evenodd" clip-rule="evenodd" d="M66.4789 28.792C64.3029 25.976 61.1669 24.568 57.0709 24.568C54.5749 24.568 52.2069 25.336 49.9669 26.872C47.7269 28.344 45.7429 30.52 44.0149 33.4C43.1189 30.52 41.6789 28.344 39.6949 26.872C37.7109 25.336 35.2469 24.568 32.3029 24.568C29.9349 24.568 27.6629 25.272 25.4869 26.68C23.3109 28.088 21.3909 30.104 19.7269 32.728V25.72H12.0469V37.068H22.2306C23.1196 35.9769 24.077 35.0422 25.1029 34.264C27.0229 32.856 28.8789 32.152 30.6709 32.152C33.6024 32.152 35.4848 33.7911 36.3183 37.0693L36.3179 37.068H46.9986C47.8876 35.9769 48.845 35.0423 49.8709 34.264C51.7909 32.856 53.6469 32.152 55.4389 32.152C58.37 32.152 60.2523 33.7907 61.0859 37.068H63.7366L61.5829 43.568H69.7429V40.6C69.7429 39.3524 69.6783 38.1751 69.5491 37.0681L69.5491 37.068H63.7366L66.4789 28.792ZM12.0469 43.568V72.568H20.2069L20.2069 52.5H18.7669V46H20.2069V43.568H12.0469ZM44.9749 43.568H36.8149V72.568H44.9749V52.5H43.5349V46H44.9749V43.568ZM113.602 37.068L117.379 25.72H108.931L105.476 37.068H113.602ZM111.439 43.568H103.497L101.606 49.7797L102.275 52.5H100.778L96.4511 66.712L90.76 43.568H82.5269L90.7871 72.568H93.8591L87.7151 90.328H95.8751L101.975 72H98.7603L101.009 65.5H104.139L108.466 52.5H104.281L106.259 46H110.629L111.439 43.568ZM80.6754 37.068L77.4431 25.72H86.3711L89.1616 37.068H80.6754ZM138.456 26.488C136.28 27.768 134.36 29.592 132.696 31.96V7H124.536V37.068H134.504C135.473 35.8525 136.534 34.8219 137.688 33.976C139.608 32.568 141.496 31.864 143.352 31.864C146.327 31.864 148.238 33.5987 149.085 37.068H157.539C157.125 33.5997 156.108 30.8411 154.488 28.792C152.312 25.976 149.24 24.568 145.272 24.568C142.904 24.568 140.632 25.208 138.456 26.488ZM157.752 43.568H149.592V57.016C149.592 63.608 146.68 66.904 140.856 66.904C138.296 66.904 136.28 66.072 134.808 64.408C133.4 62.744 132.696 60.344 132.696 57.208V52.5H131.998C131.524 50.5937 131.277 48.427 131.257 46H132.696V43.568H124.536V56.248C124.536 62.136 125.848 66.52 128.472 69.4C131.096 72.28 135.224 73.72 140.856 73.72C146.616 73.72 150.872 72.248 153.624 69.304C156.376 66.296 157.752 61.88 157.752 56.056V52.5H155.069C155.897 50.9515 156.312 48.9342 156.312 46.448V46H157.752V43.568ZM198.811 29.176C196.059 26.104 191.835 24.568 186.139 24.568C180.443 24.568 176.187 26.104 173.371 29.176C171.479 31.244 170.237 33.917 169.646 37.195C169.654 37.1526 169.662 37.1102 169.67 37.068H177.995C178.379 35.8585 178.95 34.8278 179.707 33.976C181.243 32.248 183.387 31.384 186.139 31.384C188.891 31.384 191.035 32.248 192.571 33.976C193.343 34.8126 193.921 35.8432 194.305 37.068H202.599C201.985 33.8479 200.722 31.2172 198.811 29.176ZM203.035 43.568H194.875V56.92C194.875 60.12 194.107 62.584 192.571 64.312C191.035 66.04 188.891 66.904 186.139 66.904C183.387 66.904 181.243 66.04 179.707 64.312C178.171 62.584 177.403 60.12 177.403 56.92V52.5H176.816C176.272 50.5699 175.988 48.4032 175.965 46H177.403V43.568H169.243V56.248C169.243 61.816 170.619 66.136 173.371 69.208C176.187 72.216 180.443 73.72 186.139 73.72C191.835 73.72 196.059 72.216 198.811 69.208C201.627 66.136 203.035 61.816 203.035 56.248V52.5H200.191C201.127 50.8991 201.595 48.8497 201.595 46.352V46H203.035V43.568ZM244.092 29.176C241.34 26.104 237.116 24.568 231.42 24.568C225.724 24.568 221.468 26.104 218.652 29.176C216.76 31.244 215.519 33.917 214.927 37.195C214.932 37.1725 214.936 37.1501 214.94 37.1277C214.943 37.1077 214.947 37.0879 214.951 37.068H223.277C223.661 35.8585 224.231 34.8278 224.988 33.976C226.524 32.248 228.668 31.384 231.42 31.384C234.172 31.384 236.316 32.248 237.852 33.976C238.625 34.8126 239.203 35.8432 239.587 37.068H247.88C247.266 33.8479 246.003 31.2172 244.092 29.176ZM248.316 43.568H240.156V56.92C240.156 60.12 239.388 62.584 237.852 64.312C236.316 66.04 234.172 66.904 231.42 66.904C228.668 66.904 226.524 66.04 224.988 64.312C223.452 62.584 222.684 60.12 222.684 56.92V52.5H222.098C221.553 50.5699 221.269 48.4032 221.246 46H222.684V43.568H214.524V56.248C214.524 61.816 215.9 66.136 218.652 69.208C221.468 72.216 225.724 73.72 231.42 73.72C237.116 73.72 241.34 72.216 244.092 69.208C246.908 66.136 248.316 61.816 248.316 56.248V52.5H245.473C246.408 50.8991 246.876 48.8497 246.876 46.352V46H248.316V43.568ZM268.926 37.068V7H260.766V37.068H268.926ZM268.926 43.568H260.766V72.568H268.926V52.5H267.486V46H268.926V43.568ZM284.766 72.568L272.127 52.5H275.646V46H269.123L270.941 43.568H279.561L277.47 46.264L294.558 72.568H284.766ZM275.801 37.068H284.603L293.406 25.72H284.286L275.801 37.068Z" fill="white"/>
<path fill-rule="evenodd" clip-rule="evenodd" d="M19.1418 33V26.5H29.3255C28.6062 27.3829 27.9316 28.3682 27.3018 29.456V33H19.1418ZM52.0698 33H43.9098V31.184C43.9098 29.3638 43.7442 27.8025 43.4129 26.5H54.0935C53.3742 27.3829 52.6996 28.3682 52.0698 29.456V33ZM76.8378 33H68.6778V31.184C68.6778 29.3638 68.5122 27.8025 68.1809 26.5H76.644C76.7732 27.607 76.8378 28.7844 76.8378 30.032V33ZM291.698 26.5L286.656 33H278.036L282.896 26.5H291.698ZM267.861 26.5H276.021V33H267.861V26.5ZM254.975 26.5C255.266 28.0251 255.411 29.6824 255.411 31.472V33H247.251V30.704C247.251 29.1128 247.061 27.7114 246.682 26.5H254.975ZM222.046 26.5C221.761 28.0251 221.619 29.6824 221.619 31.472V33H229.779V30.8C229.779 29.1774 229.977 27.7441 230.372 26.5H222.046ZM209.694 26.5C209.985 28.0251 210.13 29.6824 210.13 31.472V33H201.97V30.704C201.97 29.1128 201.78 27.7114 201.4 26.5H209.694ZM176.765 26.5C176.48 28.0251 176.338 29.6824 176.338 31.472V33H184.498V30.8C184.498 29.1774 184.696 27.7441 185.09 26.5H176.765ZM164.634 26.5C164.776 27.6898 164.847 28.9632 164.847 30.32V33H156.687V31.472C156.687 29.5394 156.518 27.8821 156.18 26.5H164.634ZM131.631 26.5V33H139.791V29.168C140.353 28.1971 140.956 27.3077 141.599 26.5H131.631ZM120.697 26.5L118.534 33H110.592L112.571 26.5H120.697ZM87.7704 26.5H96.2566L97.8549 33H89.6218L87.7704 26.5Z" fill="white"/>
<path fill-rule="evenodd" clip-rule="evenodd" d="M19.1418 52.5V46H27.3018V52.5H19.1418ZM52.0698 52.5H43.9098V46H52.0698V52.5ZM76.8378 52.5H68.6778V46H76.8378V52.5ZM276.021 52.5H267.861V46H276.021V52.5ZM295.481 52.5H285.878L281.784 46H291.258L295.481 52.5ZM255.41 46C255.386 48.4032 255.096 50.5699 254.538 52.5H245.848C246.783 50.8991 247.251 48.8497 247.251 46.352V46H255.41ZM221.621 46C221.644 48.4032 221.928 50.5699 222.472 52.5H231.183C230.247 50.8991 229.779 48.8497 229.779 46.352V46H221.621ZM210.129 46C210.105 48.4032 209.814 50.5699 209.257 52.5H200.566C201.502 50.8991 201.97 48.8497 201.97 46.352V46H210.129ZM176.34 46C176.363 48.4032 176.647 50.5699 177.191 52.5H185.902C184.966 50.8991 184.498 48.8497 184.498 46.352V46H176.34ZM164.843 46C164.809 48.416 164.531 50.5827 164.009 52.5H155.444C156.272 50.9515 156.687 48.9342 156.687 46.448V46H164.843ZM131.632 46C131.652 48.427 131.899 50.5937 132.373 52.5H141.003C140.195 50.9691 139.791 49.0157 139.791 46.64V46H131.632ZM114.207 46L112.043 52.5H104.656L106.634 46H114.207ZM93.3247 46H101.052L102.65 52.5H95.1762L93.3247 46Z" fill="white"/>
<path fill-rule="evenodd" clip-rule="evenodd" d="M97.4946 72L99.7433 65.5H107.716L105.553 72H97.4946Z" fill="white"/>
<path fill-rule="evenodd" clip-rule="evenodd" d="M63.432 28.792C61.256 25.976 58.12 24.568 54.024 24.568C51.528 24.568 49.16 25.336 46.92 26.872C44.68 28.344 42.696 30.52 40.968 33.4C40.072 30.52 38.632 28.344 36.648 26.872C34.664 25.336 32.2 24.568 29.256 24.568C26.888 24.568 24.616 25.272 22.44 26.68C20.264 28.088 18.344 30.104 16.68 32.728V25.72H9V37.068H19.1837C20.0727 35.9769 21.0301 35.0422 22.056 34.264C23.976 32.856 25.832 32.152 27.624 32.152C30.5555 32.152 32.438 33.7911 33.2714 37.0693L33.2711 37.068H43.9517C44.8407 35.9769 45.7981 35.0423 46.824 34.264C48.744 32.856 50.6 32.152 52.392 32.152C55.3231 32.152 57.2054 33.7907 58.0391 37.068H60.6898L58.536 43.568H66.696V40.6C66.696 39.3524 66.6314 38.1751 66.5022 37.0681L66.5022 37.068H60.6898L63.432 28.792ZM9 43.568V72.568H17.16L17.16 52.5H15.72V46H17.16V43.568H9ZM41.928 43.568H33.768V72.568H41.928V52.5H40.488V46H41.928V43.568ZM110.555 37.068L114.332 25.72H105.884L102.429 37.068H110.555ZM108.392 43.568H100.45L98.5593 49.7797L99.2282 52.5H97.7311L93.4043 66.712L87.7131 43.568H79.48L87.7402 72.568H90.8122L84.6683 90.328H92.8282L98.9285 72H94.0728L96.3214 65.5H101.092L105.419 52.5H101.234L103.213 46H107.582L108.392 43.568ZM77.6286 37.068L74.3962 25.72H83.3242L86.1147 37.068H77.6286ZM135.409 26.488C133.233 27.768 131.313 29.592 129.649 31.96V7H121.489V37.068H131.458C132.426 35.8525 133.487 34.8219 134.641 33.976C136.561 32.568 138.449 31.864 140.305 31.864C143.28 31.864 145.191 33.5987 146.038 37.068H154.492C154.078 33.5997 153.061 30.8411 151.441 28.792C149.265 25.976 146.193 24.568 142.225 24.568C139.857 24.568 137.585 25.208 135.409 26.488ZM154.705 43.568H146.545V57.016C146.545 63.608 143.633 66.904 137.809 66.904C135.249 66.904 133.233 66.072 131.761 64.408C130.353 62.744 129.649 60.344 129.649 57.208V52.5H128.951C128.477 50.5937 128.23 48.427 128.21 46H129.649V43.568H121.489V56.248C121.489 62.136 122.801 66.52 125.425 69.4C128.049 72.28 132.177 73.72 137.809 73.72C143.569 73.72 147.825 72.248 150.577 69.304C153.329 66.296 154.705 61.88 154.705 56.056V52.5H152.022C152.851 50.9515 153.265 48.9342 153.265 46.448V46H154.705V43.568ZM195.764 29.176C193.012 26.104 188.788 24.568 183.092 24.568C177.396 24.568 173.14 26.104 170.324 29.176C168.432 31.244 167.191 33.917 166.599 37.195C166.607 37.1526 166.615 37.1102 166.623 37.068H174.949C175.333 35.8585 175.903 34.8278 176.66 33.976C178.196 32.248 180.34 31.384 183.092 31.384C185.844 31.384 187.988 32.248 189.524 33.976C190.296 34.8126 190.875 35.8432 191.259 37.068H199.552C198.938 33.8479 197.675 31.2172 195.764 29.176ZM199.988 43.568H191.828V56.92C191.828 60.12 191.06 62.584 189.524 64.312C187.988 66.04 185.844 66.904 183.092 66.904C180.34 66.904 178.196 66.04 176.66 64.312C175.124 62.584 174.356 60.12 174.356 56.92V52.5H173.769C173.225 50.5699 172.941 48.4032 172.918 46H174.356V43.568H166.196V56.248C166.196 61.816 167.572 66.136 170.324 69.208C173.14 72.216 177.396 73.72 183.092 73.72C188.788 73.72 193.012 72.216 195.764 69.208C198.58 66.136 199.988 61.816 199.988 56.248V52.5H197.145C198.08 50.8991 198.548 48.8497 198.548 46.352V46H199.988V43.568ZM241.046 29.176C238.294 26.104 234.07 24.568 228.374 24.568C222.678 24.568 218.421 26.104 215.605 29.176C213.714 31.244 212.472 33.917 211.881 37.195C211.888 37.1526 211.896 37.1102 211.904 37.068H220.23C220.614 35.8585 221.184 34.8278 221.941 33.976C223.477 32.248 225.622 31.384 228.374 31.384C231.126 31.384 233.27 32.248 234.805 33.976C235.578 34.8126 236.156 35.8432 236.54 37.068H244.833C244.219 33.8479 242.956 31.2172 241.046 29.176ZM245.27 43.568H237.109V56.92C237.109 60.12 236.342 62.584 234.805 64.312C233.27 66.04 231.126 66.904 228.374 66.904C225.622 66.904 223.477 66.04 221.941 64.312C220.406 62.584 219.637 60.12 219.637 56.92V52.5H219.051C218.506 50.5699 218.222 48.4032 218.199 46H219.637V43.568H211.477V56.248C211.477 61.816 212.854 66.136 215.605 69.208C218.421 72.216 222.678 73.72 228.374 73.72C234.07 73.72 238.294 72.216 241.046 69.208C243.861 66.136 245.27 61.816 245.27 56.248V52.5H242.426C243.362 50.8991 243.829 48.8497 243.829 46.352V46H245.27V43.568ZM265.879 37.068V7H257.719V37.068H265.879ZM265.879 43.568H257.719V72.568H265.879V52.5H264.439V46H265.879V43.568ZM281.719 72.568L269.081 52.5H272.599V46H266.076L267.894 43.568H276.514L274.423 46.264L291.511 72.568H281.719ZM272.754 37.068H281.556L290.359 25.72H281.239L272.754 37.068Z" fill="white"/>
<path fill-rule="evenodd" clip-rule="evenodd" d="M22.1887 33V26.5H32.3724C31.653 27.3829 30.9785 28.3682 30.3487 29.456V33H22.1887ZM55.1167 33H46.9567V31.184C46.9567 29.3638 46.7911 27.8025 46.4598 26.5H57.1404C56.421 27.3829 55.7465 28.3682 55.1167 29.456V33ZM79.8847 33H71.7247V31.184C71.7247 29.3638 71.5591 27.8025 71.2278 26.5H79.6909C79.8201 27.607 79.8847 28.7844 79.8847 30.032V33ZM294.745 26.5L289.703 33H281.083L285.943 26.5H294.745ZM270.907 26.5H279.067V33H270.907V26.5ZM258.022 26.5C258.313 28.0251 258.458 29.6824 258.458 31.472V33H250.298V30.704C250.298 29.1128 250.108 27.7114 249.729 26.5H258.022ZM225.093 26.5C224.808 28.0251 224.666 29.6824 224.666 31.472V33H232.826V30.8C232.826 29.1774 233.024 27.7441 233.419 26.5H225.093ZM212.741 26.5C213.032 28.0251 213.177 29.6824 213.177 31.472V33H205.017V30.704C205.017 29.1128 204.827 27.7114 204.447 26.5H212.741ZM179.811 26.5C179.527 28.0251 179.385 29.6824 179.385 31.472V33H187.545V30.8C187.545 29.1774 187.742 27.7441 188.137 26.5H179.811ZM167.681 26.5C167.822 27.6898 167.893 28.9632 167.893 30.32V33H159.733V31.472C159.733 29.5394 159.565 27.8821 159.227 26.5H167.681ZM134.677 26.5V33H142.837V29.168C143.4 28.1971 144.003 27.3077 144.646 26.5H134.677ZM123.744 26.5L121.58 33H113.639L115.618 26.5H123.744ZM90.8173 26.5H99.3035L100.902 33H92.6687L90.8173 26.5Z" fill="#FF5ABE" style="mix-blend-mode:multiply"/>
<path fill-rule="evenodd" clip-rule="evenodd" d="M22.1887 52.5V46H30.3487V52.5H22.1887ZM55.1167 52.5H46.9567V46H55.1167V52.5ZM79.8847 52.5H71.7247V46H79.8847V52.5ZM279.067 52.5H270.907V46H279.067V52.5ZM298.528 52.5H288.925L284.831 46H294.305L298.528 52.5ZM258.457 46C258.433 48.4032 258.143 50.5699 257.585 52.5H248.895C249.83 50.8991 250.298 48.8497 250.298 46.352V46H258.457ZM224.668 46C224.691 48.4032 224.975 50.5699 225.519 52.5H234.23C233.294 50.8991 232.826 48.8497 232.826 46.352V46H224.668ZM213.175 46C213.152 48.4032 212.861 50.5699 212.304 52.5H203.613C204.549 50.8991 205.017 48.8497 205.017 46.352V46H213.175ZM179.386 46C179.41 48.4032 179.693 50.5699 180.238 52.5H188.949C188.013 50.8991 187.545 48.8497 187.545 46.352V46H179.386ZM167.89 46C167.856 48.416 167.578 50.5827 167.056 52.5H158.491C159.319 50.9515 159.733 48.9342 159.733 46.448V46H167.89ZM134.679 46C134.699 48.427 134.946 50.5937 135.42 52.5H144.05C143.242 50.9691 142.837 49.0157 142.837 46.64V46H134.679ZM117.254 46L115.09 52.5H107.702L109.681 46H117.254ZM96.3716 46H104.099L105.697 52.5H98.223L96.3716 46Z" fill="#FF5ABE" style="mix-blend-mode:multiply"/>
<path fill-rule="evenodd" clip-rule="evenodd" d="M100.542 72L102.79 65.5H110.763L108.6 72H100.542Z" fill="#FF5ABE" style="mix-blend-mode:multiply"/>
<path fill-rule="evenodd" clip-rule="evenodd" d="M66.4789 28.792C64.3029 25.976 61.1669 24.568 57.0709 24.568C54.5749 24.568 52.2069 25.336 49.9669 26.872C47.7269 28.344 45.7429 30.52 44.0149 33.4C43.1189 30.52 41.6789 28.344 39.6949 26.872C37.7109 25.336 35.2469 24.568 32.3029 24.568C29.9349 24.568 27.6629 25.272 25.4869 26.68C23.3109 28.088 21.3909 30.104 19.7269 32.728V25.72H12.0469V37.068H22.2306C23.1196 35.9769 24.077 35.0422 25.1029 34.264C27.0229 32.856 28.8789 32.152 30.6709 32.152C33.6024 32.152 35.4848 33.7911 36.3183 37.0693L36.3179 37.068H46.9986C47.8876 35.9769 48.845 35.0423 49.8709 34.264C51.7909 32.856 53.6469 32.152 55.4389 32.152C58.37 32.152 60.2523 33.7907 61.0859 37.068H63.7366L61.5829 43.568H69.7429V40.6C69.7429 39.3524 69.6783 38.1751 69.5491 37.0681L69.5491 37.068H63.7366L66.4789 28.792ZM12.0469 43.568V72.568H20.2069L20.2069 52.5H18.7669V46H20.2069V43.568H12.0469ZM44.9749 43.568H36.8149V72.568H44.9749V52.5H43.5349V46H44.9749V43.568ZM113.602 37.068L117.379 25.72H108.931L105.476 37.068H113.602ZM111.439 43.568H103.497L101.606 49.7797L102.275 52.5H100.778L96.4511 66.712L90.76 43.568H82.5269L90.7871 72.568H93.8591L87.7151 90.328H95.8751L101.975 72H98.7603L101.009 65.5H104.139L108.466 52.5H104.281L106.259 46H110.629L111.439 43.568ZM80.6754 37.068L77.4431 25.72H86.3711L89.1616 37.068H80.6754ZM138.456 26.488C136.28 27.768 134.36 29.592 132.696 31.96V7H124.536V37.068H134.504C135.473 35.8525 136.534 34.8219 137.688 33.976C139.608 32.568 141.496 31.864 143.352 31.864C146.327 31.864 148.238 33.5987 149.085 37.068H157.539C157.125 33.5997 156.108 30.8411 154.488 28.792C152.312 25.976 149.24 24.568 145.272 24.568C142.904 24.568 140.632 25.208 138.456 26.488ZM157.752 43.568H149.592V57.016C149.592 63.608 146.68 66.904 140.856 66.904C138.296 66.904 136.28 66.072 134.808 64.408C133.4 62.744 132.696 60.344 132.696 57.208V52.5H131.998C131.524 50.5937 131.277 48.427 131.257 46H132.696V43.568H124.536V56.248C124.536 62.136 125.848 66.52 128.472 69.4C131.096 72.28 135.224 73.72 140.856 73.72C146.616 73.72 150.872 72.248 153.624 69.304C156.376 66.296 157.752 61.88 157.752 56.056V52.5H155.069C155.897 50.9515 156.312 48.9342 156.312 46.448V46H157.752V43.568ZM198.811 29.176C196.059 26.104 191.835 24.568 186.139 24.568C180.443 24.568 176.187 26.104 173.371 29.176C171.479 31.244 170.237 33.917 169.646 37.195C169.654 37.1526 169.662 37.1102 169.67 37.068H177.995C178.379 35.8585 178.95 34.8278 179.707 33.976C181.243 32.248 183.387 31.384 186.139 31.384C188.891 31.384 191.035 32.248 192.571 33.976C193.343 34.8126 193.921 35.8432 194.305 37.068H202.599C201.985 33.8479 200.722 31.2172 198.811 29.176ZM203.035 43.568H194.875V56.92C194.875 60.12 194.107 62.584 192.571 64.312C191.035 66.04 188.891 66.904 186.139 66.904C183.387 66.904 181.243 66.04 179.707 64.312C178.171 62.584 177.403 60.12 177.403 56.92V52.5H176.816C176.272 50.5699 175.988 48.4032 175.965 46H177.403V43.568H169.243V56.248C169.243 61.816 170.619 66.136 173.371 69.208C176.187 72.216 180.443 73.72 186.139 73.72C191.835 73.72 196.059 72.216 198.811 69.208C201.627 66.136 203.035 61.816 203.035 56.248V52.5H200.191C201.127 50.8991 201.595 48.8497 201.595 46.352V46H203.035V43.568ZM244.092 29.176C241.34 26.104 237.116 24.568 231.42 24.568C225.724 24.568 221.468 26.104 218.652 29.176C216.76 31.244 215.519 33.917 214.927 37.195C214.932 37.1725 214.936 37.1501 214.94 37.1277C214.943 37.1077 214.947 37.0879 214.951 37.068H223.277C223.661 35.8585 224.231 34.8278 224.988 33.976C226.524 32.248 228.668 31.384 231.42 31.384C234.172 31.384 236.316 32.248 237.852 33.976C238.625 34.8126 239.203 35.8432 239.587 37.068H247.88C247.266 33.8479 246.003 31.2172 244.092 29.176ZM248.316 43.568H240.156V56.92C240.156 60.12 239.388 62.584 237.852 64.312C236.316 66.04 234.172 66.904 231.42 66.904C228.668 66.904 226.524 66.04 224.988 64.312C223.452 62.584 222.684 60.12 222.684 56.92V52.5H222.098C221.553 50.5699 221.269 48.4032 221.246 46H222.684V43.568H214.524V56.248C214.524 61.816 215.9 66.136 218.652 69.208C221.468 72.216 225.724 73.72 231.42 73.72C237.116 73.72 241.34 72.216 244.092 69.208C246.908 66.136 248.316 61.816 248.316 56.248V52.5H245.473C246.408 50.8991 246.876 48.8497 246.876 46.352V46H248.316V43.568ZM268.926 37.068V7H260.766V37.068H268.926ZM268.926 43.568H260.766V72.568H268.926V52.5H267.486V46H268.926V43.568ZM284.766 72.568L272.127 52.5H275.646V46H269.123L270.941 43.568H279.561L277.47 46.264L294.558 72.568H284.766ZM275.801 37.068H284.603L293.406 25.72H284.286L275.801 37.068Z" fill="#FF5ABE" style="mix-blend-mode:multiply"/>
<path fill-rule="evenodd" clip-rule="evenodd" d="M19.1418 33V26.5H29.3255C28.6062 27.3829 27.9316 28.3682 27.3018 29.456V33H19.1418ZM52.0698 33H43.9098V31.184C43.9098 29.3638 43.7442 27.8025 43.4129 26.5H54.0935C53.3742 27.3829 52.6996 28.3682 52.0698 29.456V33ZM76.8378 33H68.6778V31.184C68.6778 29.3638 68.5122 27.8025 68.1809 26.5H76.644C76.7732 27.607 76.8378 28.7844 76.8378 30.032V33ZM291.698 26.5L286.656 33H278.036L282.896 26.5H291.698ZM267.861 26.5H276.021V33H267.861V26.5ZM254.975 26.5C255.266 28.0251 255.411 29.6824 255.411 31.472V33H247.251V30.704C247.251 29.1128 247.061 27.7114 246.682 26.5H254.975ZM222.046 26.5C221.761 28.0251 221.619 29.6824 221.619 31.472V33H229.779V30.8C229.779 29.1774 229.977 27.7441 230.372 26.5H222.046ZM209.694 26.5C209.985 28.0251 210.13 29.6824 210.13 31.472V33H201.97V30.704C201.97 29.1128 201.78 27.7114 201.4 26.5H209.694ZM176.765 26.5C176.48 28.0251 176.338 29.6824 176.338 31.472V33H184.498V30.8C184.498 29.1774 184.696 27.7441 185.09 26.5H176.765ZM164.634 26.5C164.776 27.6898 164.847 28.9632 164.847 30.32V33H156.687V31.472C156.687 29.5394 156.518 27.8821 156.18 26.5H164.634ZM131.631 26.5V33H139.791V29.168C140.353 28.1971 140.956 27.3077 141.599 26.5H131.631ZM120.697 26.5L118.534 33H110.592L112.571 26.5H120.697ZM87.7704 26.5H96.2566L97.8549 33H89.6218L87.7704 26.5Z" fill="#5AFFBA" style="mix-blend-mode:multiply"/>
<path fill-rule="evenodd" clip-rule="evenodd" d="M19.1418 52.5V46H27.3018V52.5H19.1418ZM52.0698 52.5H43.9098V46H52.0698V52.5ZM76.8378 52.5H68.6778V46H76.8378V52.5ZM276.021 52.5H267.861V46H276.021V52.5ZM295.481 52.5H285.878L281.784 46H291.258L295.481 52.5ZM255.41 46C255.386 48.4032 255.096 50.5699 254.538 52.5H245.848C246.783 50.8991 247.251 48.8497 247.251 46.352V46H255.41ZM221.621 46C221.644 48.4032 221.928 50.5699 222.472 52.5H231.183C230.247 50.8991 229.779 48.8497 229.779 46.352V46H221.621ZM210.129 46C210.105 48.4032 209.814 50.5699 209.257 52.5H200.566C201.502 50.8991 201.97 48.8497 201.97 46.352V46H210.129ZM176.34 46C176.363 48.4032 176.647 50.5699 177.191 52.5H185.902C184.966 50.8991 184.498 48.8497 184.498 46.352V46H176.34ZM164.843 46C164.809 48.416 164.531 50.5827 164.009 52.5H155.444C156.272 50.9515 156.687 48.9342 156.687 46.448V46H164.843ZM131.632 46C131.652 48.427 131.899 50.5937 132.373 52.5H141.003C140.195 50.9691 139.791 49.0157 139.791 46.64V46H131.632ZM114.207 46L112.043 52.5H104.656L106.634 46H114.207ZM93.3247 46H101.052L102.65 52.5H95.1762L93.3247 46Z" fill="#5AFFBA" style="mix-blend-mode:multiply"/>
<path fill-rule="evenodd" clip-rule="evenodd" d="M97.4946 72L99.7433 65.5H107.716L105.553 72H97.4946Z" fill="#5AFFBA" style="mix-blend-mode:multiply"/>
<path fill-rule="evenodd" clip-rule="evenodd" d="M63.432 28.792C61.256 25.976 58.12 24.568 54.024 24.568C51.528 24.568 49.16 25.336 46.92 26.872C44.68 28.344 42.696 30.52 40.968 33.4C40.072 30.52 38.632 28.344 36.648 26.872C34.664 25.336 32.2 24.568 29.256 24.568C26.888 24.568 24.616 25.272 22.44 26.68C20.264 28.088 18.344 30.104 16.68 32.728V25.72H9V37.068H19.1837C20.0727 35.9769 21.0301 35.0422 22.056 34.264C23.976 32.856 25.832 32.152 27.624 32.152C30.5555 32.152 32.438 33.7911 33.2714 37.0693L33.2711 37.068H43.9517C44.8407 35.9769 45.7981 35.0423 46.824 34.264C48.744 32.856 50.6 32.152 52.392 32.152C55.3231 32.152 57.2054 33.7907 58.0391 37.068H60.6898L58.536 43.568H66.696V40.6C66.696 39.3524 66.6314 38.1751 66.5022 37.0681L66.5022 37.068H60.6898L63.432 28.792ZM9 43.568V72.568H17.16L17.16 52.5H15.72V46H17.16V43.568H9ZM41.928 43.568H33.768V72.568H41.928V52.5H40.488V46H41.928V43.568ZM110.555 37.068L114.332 25.72H105.884L102.429 37.068H110.555ZM108.392 43.568H100.45L98.5593 49.7797L99.2282 52.5H97.7311L93.4043 66.712L87.7131 43.568H79.48L87.7402 72.568H90.8122L84.6683 90.328H92.8282L98.9285 72H94.0728L96.3214 65.5H101.092L105.419 52.5H101.234L103.213 46H107.582L108.392 43.568ZM77.6286 37.068L74.3962 25.72H83.3242L86.1147 37.068H77.6286ZM135.409 26.488C133.233 27.768 131.313 29.592 129.649 31.96V7H121.489V37.068H131.458C132.426 35.8525 133.487 34.8219 134.641 33.976C136.561 32.568 138.449 31.864 140.305 31.864C143.28 31.864 145.191 33.5987 146.038 37.068H154.492C154.078 33.5997 153.061 30.8411 151.441 28.792C149.265 25.976 146.193 24.568 142.225 24.568C139.857 24.568 137.585 25.208 135.409 26.488ZM154.705 43.568H146.545V57.016C146.545 63.608 143.633 66.904 137.809 66.904C135.249 66.904 133.233 66.072 131.761 64.408C130.353 62.744 129.649 60.344 129.649 57.208V52.5H128.951C128.477 50.5937 128.23 48.427 128.21 46H129.649V43.568H121.489V56.248C121.489 62.136 122.801 66.52 125.425 69.4C128.049 72.28 132.177 73.72 137.809 73.72C143.569 73.72 147.825 72.248 150.577 69.304C153.329 66.296 154.705 61.88 154.705 56.056V52.5H152.022C152.851 50.9515 153.265 48.9342 153.265 46.448V46H154.705V43.568ZM195.764 29.176C193.012 26.104 188.788 24.568 183.092 24.568C177.396 24.568 173.14 26.104 170.324 29.176C168.432 31.244 167.191 33.917 166.599 37.195C166.607 37.1526 166.615 37.1102 166.623 37.068H174.949C175.333 35.8585 175.903 34.8278 176.66 33.976C178.196 32.248 180.34 31.384 183.092 31.384C185.844 31.384 187.988 32.248 189.524 33.976C190.296 34.8126 190.875 35.8432 191.259 37.068H199.552C198.938 33.8479 197.675 31.2172 195.764 29.176ZM199.988 43.568H191.828V56.92C191.828 60.12 191.06 62.584 189.524 64.312C187.988 66.04 185.844 66.904 183.092 66.904C180.34 66.904 178.196 66.04 176.66 64.312C175.124 62.584 174.356 60.12 174.356 56.92V52.5H173.769C173.225 50.5699 172.941 48.4032 172.918 46H174.356V43.568H166.196V56.248C166.196 61.816 167.572 66.136 170.324 69.208C173.14 72.216 177.396 73.72 183.092 73.72C188.788 73.72 193.012 72.216 195.764 69.208C198.58 66.136 199.988 61.816 199.988 56.248V52.5H197.145C198.08 50.8991 198.548 48.8497 198.548 46.352V46H199.988V43.568ZM241.046 29.176C238.294 26.104 234.07 24.568 228.374 24.568C222.678 24.568 218.421 26.104 215.605 29.176C213.714 31.244 212.472 33.917 211.881 37.195C211.888 37.1526 211.896 37.1102 211.904 37.068H220.23C220.614 35.8585 221.184 34.8278 221.941 33.976C223.477 32.248 225.622 31.384 228.374 31.384C231.126 31.384 233.27 32.248 234.805 33.976C235.578 34.8126 236.156 35.8432 236.54 37.068H244.833C244.219 33.8479 242.956 31.2172 241.046 29.176ZM245.27 43.568H237.109V56.92C237.109 60.12 236.342 62.584 234.805 64.312C233.27 66.04 231.126 66.904 228.374 66.904C225.622 66.904 223.477 66.04 221.941 64.312C220.406 62.584 219.637 60.12 219.637 56.92V52.5H219.051C218.506 50.5699 218.222 48.4032 218.199 46H219.637V43.568H211.477V56.248C211.477 61.816 212.854 66.136 215.605 69.208C218.421 72.216 222.678 73.72 228.374 73.72C234.07 73.72 238.294 72.216 241.046 69.208C243.861 66.136 245.27 61.816 245.27 56.248V52.5H242.426C243.362 50.8991 243.829 48.8497 243.829 46.352V46H245.27V43.568ZM265.879 37.068V7H257.719V37.068H265.879ZM265.879 43.568H257.719V72.568H265.879V52.5H264.439V46H265.879V43.568ZM281.719 72.568L269.081 52.5H272.599V46H266.076L267.894 43.568H276.514L274.423 46.264L291.511 72.568H281.719ZM272.754 37.068H281.556L290.359 25.72H281.239L272.754 37.068Z" fill="#5AFFBA" style="mix-blend-mode:multiply"/>
</svg>
