<svg width="165" height="165" viewBox="0 0 165 165" fill="none" xmlns="http://www.w3.org/2000/svg">
<rect width="165" height="165" rx="18" fill="#588157"/>
<line x1="4" y1="133.5" x2="160.002" y2="133.5" stroke="#A3B18A" stroke-width="25"/>
<g filter="url(#filter0_d_34_31)">
<path d="M133.325 58.5C140.792 58.5 146.508 61.0667 150.475 66.2C154.442 71.2167 156.425 78.3917 156.425 87.725V146H141.55V89.825C141.55 78.1583 137.817 72.325 130.35 72.325C127.083 72.325 123.7 73.6083 120.2 76.175C116.817 78.7417 113.842 82.2417 111.275 86.675V146H96.4V89.825C96.4 78.1583 92.6667 72.325 85.2 72.325C81.9333 72.325 78.55 73.6083 75.05 76.175C71.6667 78.7417 68.6917 82.2417 66.125 86.675V146H51.25V60.6H65.25V73.375C68.2833 68.5917 71.7833 64.9167 75.75 62.35C79.7167 59.7833 83.8583 58.5 88.175 58.5C93.5417 58.5 98.0333 59.9 101.65 62.7C105.267 65.3833 107.892 69.35 109.525 74.6C112.675 69.35 116.292 65.3833 120.375 62.7C124.458 59.9 128.775 58.5 133.325 58.5Z" fill="#F7FAF8"/>
</g>
<defs>
<filter id="filter0_d_34_31" x="46.25" y="57.5" width="115.175" height="97.5" filterUnits="userSpaceOnUse" color-interpolation-filters="sRGB">
<feFlood flood-opacity="0" result="BackgroundImageFix"/>
<feColorMatrix in="SourceAlpha" type="matrix" values="0 0 0 0 0 0 0 0 0 0 0 0 0 0 0 0 0 0 127 0" result="hardAlpha"/>
<feOffset dy="4"/>
<feGaussianBlur stdDeviation="2.5"/>
<feComposite in2="hardAlpha" operator="out"/>
<feColorMatrix type="matrix" values="0 0 0 0 0 0 0 0 0 0 0 0 0 0 0 0 0 0 0.25 0"/>
<feBlend mode="normal" in2="BackgroundImageFix" result="effect1_dropShadow_34_31"/>
<feBlend mode="normal" in="SourceGraphic" in2="effect1_dropShadow_34_31" result="shape"/>
</filter>
</defs>
</svg>
