<svg width="156" height="34" viewBox="0 0 156 34" fill="none" xmlns="http://www.w3.org/2000/svg">
<path fill-rule="evenodd" clip-rule="evenodd" d="M43.1147 19H39.0347V16.576H43.1147V19ZM63.8543 19H50.4879V16.72C53.4959 16.24 55.6559 16 56.9679 16C59.7199 16 61.7199 16.624 62.9679 17.872C63.3088 18.1958 63.6043 18.5718 63.8543 19ZM84.0834 19H80.0034V17.68C80.0034 16.4081 80.1179 15.2648 80.3469 14.25H84.6177C84.2615 15.0777 84.0834 16.125 84.0834 17.392V19ZM155.237 19H139.829V16.576H155.237V19ZM134.527 19H130.447V16.576H134.527V19ZM122.287 19H118.207V16.576H122.287V19ZM113.877 19H107.225C107.875 18.2007 108.572 17.5527 109.317 17.056C110.405 16.352 111.573 16 112.821 16C113.269 16 113.621 16.032 113.877 16.096V19ZM106.437 19H102.597V16.576H106.437V19ZM32.0683 14.25L32.1118 19H28.125L28.0809 14.25H32.0683ZM5.66455 19L5.70806 14.25H9.6955L9.65135 19H5.66455ZM26.6535 19L28.0583 14.25H24.3313L22.9649 19H26.6535ZM14.8319 19L13.4562 14.25H9.71807L11.1229 19H14.8319Z" fill="white"/>
<path fill-rule="evenodd" clip-rule="evenodd" d="M43.1148 33.25H39.0348V28.5H43.1148V33.25ZM84.2879 33.25H80.156C80.0544 32.517 80.0036 31.727 80.0036 30.88V28.5H84.0836V31.12C84.0836 31.9169 84.1517 32.6269 84.2879 33.25ZM106.677 33.25H102.597V28.5H106.677V33.25ZM146.473 33.25H141.992L145.055 28.5H149.523L146.473 33.25ZM134.527 28.5V33.25H130.234C130.306 33.1345 130.377 33.0165 130.447 32.896V28.5H134.527ZM118.207 28.5H122.287V31.84C122.287 32.3506 122.31 32.8206 122.356 33.25H118.22C118.211 33.025 118.207 32.795 118.207 32.56V28.5ZM64.8881 28.5V33.25H60.4303C60.5583 33.0439 60.6842 32.8299 60.8081 32.608V28.912C59.5921 28.688 58.2801 28.576 56.8721 28.576C55.5281 28.576 54.5041 28.928 53.8001 29.632C53.0961 30.336 52.7441 31.328 52.7441 32.608V33.136C52.7441 33.1743 52.7444 33.2123 52.7449 33.25H48.6161V32.08C48.6161 30.7175 48.9465 29.5241 49.6072 28.5H64.8881ZM32.199 28.5L32.2425 33.25H28.2576L28.2135 28.5H32.199ZM17.5835 28.5L18.9123 33.088L20.2322 28.5H23.8441L22.4393 33.25H15.3374L13.9326 28.5H17.5835ZM5.53418 33.25L5.57769 28.5H9.56323L9.51908 33.25H5.53418Z" fill="white"/>
<path fill-rule="evenodd" clip-rule="evenodd" d="M23.681 32.88L23.4858 11.88H27.4726L27.6249 28.5H26.9341L26.9748 32.88H23.681ZM27.4291 7.13H23.4417L23.441 7.056L23.4191 7.13H19.6922L21.329 1.44H27.377L27.4291 7.13ZM16.769 29.616L22.0143 11.88H18.3257L14.273 25.968L10.1927 11.88H6.48368L11.729 29.616H12.9833L12.6533 28.5H16.3042L16.6274 29.616H16.769ZM7.16901 1.44L8.81699 7.13H5.0789L5.05701 7.056L5.05632 7.13H1.06889L1.12101 1.44H7.16901ZM4.85772 28.5L5.01218 11.88H1.02538L0.833008 32.88H4.25823L4.29835 28.5H4.85772ZM37.7555 32.88V28.5H38.4755L38.4755 11.88H34.3955V32.88H37.7555ZM36.4115 0C37.2755 0 37.9315 0.192 38.3795 0.576001C38.8595 0.960002 39.0995 1.504 39.0995 2.208V3.6C39.0995 4.304 38.8595 4.848 38.3795 5.232C37.9315 5.584 37.2755 5.76 36.4115 5.76C35.5795 5.76 34.9235 5.584 34.4435 5.232C33.9955 4.848 33.7715 4.304 33.7715 3.6V2.208C33.7715 1.504 33.9955 0.960002 34.4435 0.576001C34.9235 0.192 35.5795 0 36.4115 0ZM45.8488 13.104V11.88H59.2152C59.9042 13.0598 60.2488 14.6358 60.2488 16.608V28.5H53.8614C54.6974 27.7502 55.4665 26.7462 56.1688 25.488V21.792C54.9528 21.568 53.6408 21.456 52.2328 21.456C50.8888 21.456 49.8648 21.808 49.1608 22.512C48.4568 23.216 48.1048 24.208 48.1048 25.488V26.016C48.1048 27.0328 48.3054 27.8608 48.7066 28.5H48.3279C47.6671 29.5241 47.3368 30.7175 47.3368 32.08V32.8715C46.6868 32.555 46.1108 32.1098 45.6088 31.536C44.5208 30.256 43.9768 28.512 43.9768 26.304V24.96C43.9768 23.04 44.6328 21.456 45.9448 20.208C47.2568 18.928 49.0168 18.288 51.2248 18.288C52.4408 18.288 54.0888 18.496 56.1688 18.912V16.272C56.1688 14.896 55.8488 13.904 55.2088 13.296C54.6008 12.688 53.6408 12.384 52.3288 12.384C50.7928 12.384 48.6328 12.624 45.8488 13.104ZM48.3674 33.25C48.8964 33.3873 49.4648 33.456 50.0728 33.456C52.4088 33.456 54.5048 32.016 56.3608 29.136V32.88H59.3736C59.4257 32.7907 59.4774 32.7 59.5288 32.608V28.912C58.3128 28.688 57.0008 28.576 55.5928 28.576C54.2488 28.576 53.2248 28.928 52.5208 29.632C51.8168 30.336 51.4648 31.328 51.4648 32.608V33.136C51.4648 33.1743 51.465 33.2123 51.4656 33.25H48.3674ZM85.5883 0.864C86.8363 0.864 88.1803 0.992001 89.6203 1.248C91.0923 1.472 91.9563 1.6 92.2123 1.632L92.1163 5.232C89.3003 4.72 87.1243 4.464 85.5883 4.464C83.4123 4.464 81.8443 4.912 80.8843 5.808C80.509 6.15822 80.2071 6.59889 79.9786 7.13H75.7078L75.695 7.18725C76.0625 5.51975 76.7363 4.196 77.7163 3.216C79.2843 1.648 81.9083 0.864 85.5883 0.864ZM75.3643 11.88H79.4443V24C79.4443 26.08 79.9083 27.568 80.8363 28.464C80.8497 28.4761 80.8632 28.4881 80.8769 28.5H78.7243V30.88C78.7243 31.2405 78.7335 31.5906 78.7519 31.9305C78.3666 31.6847 78.0214 31.4092 77.7163 31.104C76.1483 29.536 75.3643 27.088 75.3643 23.76V11.88ZM82.5984 33.25C83.5026 33.3873 84.4992 33.456 85.5883 33.456C86.8363 33.456 88.1803 33.328 89.6203 33.072C91.0923 32.848 91.9563 32.72 92.2123 32.688L92.1163 28.992C89.3003 29.504 87.1243 29.76 85.5883 29.76C84.512 29.76 83.584 29.6574 82.8043 29.4521V31.12C82.8043 31.9169 82.8724 32.6269 83.0086 33.25H82.5984ZM101.798 12.96C102.052 12.5736 102.315 12.2136 102.586 11.88H109.238V13.584C108.758 13.488 108.134 13.44 107.366 13.44C105.126 13.44 103.35 14.56 102.038 16.8V28.5H101.318V32.88H97.958V11.88H101.798L101.798 12.96ZM129.167 32.88H126.047V29.52C125.183 30.8 124.223 31.776 123.167 32.448C122.111 33.12 120.991 33.456 119.807 33.456C119.183 33.456 118.602 33.3873 118.063 33.25H121.077C121.031 32.8206 121.007 32.3506 121.007 31.84V29.6421C121.752 29.5577 122.52 29.229 123.311 28.656C124.271 27.952 125.103 26.992 125.807 25.776V11.88H129.887V28.5H129.167V32.88ZM118.44 28.5C118.432 28.4881 118.424 28.4761 118.415 28.464C117.903 27.664 117.647 26.416 117.647 24.72V11.88H113.567V25.44C113.567 28.064 114.111 30.064 115.199 31.44C115.695 32.0344 116.271 32.4973 116.929 32.8288C116.928 32.7399 116.927 32.6503 116.927 32.56V28.5H118.44ZM150.598 11.88V12.48L139.75 29.376H143.211L140.951 32.88H134.95V29.856L145.846 12.96H135.19V11.88H150.598ZM145.432 32.88H150.598V29.376H147.681L145.432 32.88Z" fill="white"/>
<path fill-rule="evenodd" clip-rule="evenodd" d="M42.2817 19H38.2017V16.576H42.2817V19ZM63.0213 19H49.6549V16.72C52.6629 16.24 54.8229 16 56.1349 16C58.8869 16 60.8869 16.624 62.1349 17.872C62.4758 18.1958 62.7712 18.5718 63.0213 19ZM83.2504 19H79.1704V17.68C79.1704 16.4081 79.2849 15.2648 79.5139 14.25H83.7847C83.4285 15.0777 83.2504 16.125 83.2504 17.392V19ZM154.404 19H138.996V16.576H154.404V19ZM133.694 19H129.614V16.576H133.694V19ZM121.454 19H117.374V16.576H121.454V19ZM113.044 19H106.392C107.042 18.2007 107.739 17.5527 108.484 17.056C109.572 16.352 110.74 16 111.988 16C112.436 16 112.788 16.032 113.044 16.096V19ZM105.604 19H101.764V16.576H105.604V19ZM31.2353 14.25L31.2788 19H27.292L27.2479 14.25H31.2353ZM4.83154 19L4.87505 14.25H8.86249L8.81834 19H4.83154ZM25.8205 19L27.2253 14.25H23.4983L22.1319 19H25.8205ZM13.9989 19L12.6232 14.25H8.88506L10.2899 19H13.9989Z" fill="white"/>
<path fill-rule="evenodd" clip-rule="evenodd" d="M42.2818 33.25H38.2018V28.5H42.2818V33.25ZM83.4549 33.25H79.3229C79.2214 32.517 79.1706 31.727 79.1706 30.88V28.5H83.2506V31.12C83.2506 31.9169 83.3187 32.6269 83.4549 33.25ZM105.844 33.25H101.764V28.5H105.844V33.25ZM145.64 33.25H141.159L144.222 28.5H148.69L145.64 33.25ZM133.694 28.5V33.25H129.401C129.473 33.1345 129.544 33.0165 129.614 32.896V28.5H133.694ZM117.374 28.5H121.454V31.84C121.454 32.3506 121.477 32.8206 121.523 33.25H117.387C117.378 33.025 117.374 32.795 117.374 32.56V28.5ZM64.0551 28.5V33.25H59.5973C59.7253 33.0439 59.8512 32.8299 59.9751 32.608V28.912C58.7591 28.688 57.4471 28.576 56.0391 28.576C54.6951 28.576 53.6711 28.928 52.9671 29.632C52.2631 30.336 51.9111 31.328 51.9111 32.608V33.136C51.9111 33.1743 51.9114 33.2123 51.9119 33.25H47.7831V32.08C47.7831 30.7175 48.1135 29.5241 48.7742 28.5H64.0551ZM31.366 28.5L31.4095 33.25H27.4246L27.3805 28.5H31.366ZM16.7505 28.5L18.0793 33.088L19.3992 28.5H23.0111L21.6063 33.25H14.5044L13.0996 28.5H16.7505ZM4.70117 33.25L4.74468 28.5H8.73022L8.68607 33.25H4.70117Z" fill="white"/>
<path fill-rule="evenodd" clip-rule="evenodd" d="M22.848 32.88L22.6528 11.88H26.6396L26.7919 28.5H26.1011L26.1418 32.88H22.848ZM26.5961 7.13H22.6087L22.608 7.056L22.5861 7.13H18.8592L20.496 1.44H26.544L26.5961 7.13ZM15.936 29.616L21.1813 11.88H17.4927L13.44 25.968L9.35972 11.88H5.65067L10.896 29.616H12.1503L11.8202 28.5H15.4712L15.7944 29.616H15.936ZM6.336 1.44L7.98399 7.13H4.24589L4.224 7.056L4.22331 7.13H0.235879L0.288 1.44H6.336ZM4.02471 28.5L4.17917 11.88H0.192368L0 32.88H3.42522L3.46534 28.5H4.02471ZM36.9225 32.88V28.5H37.6425L37.6425 11.88H33.5625V32.88H36.9225ZM35.5785 0C36.4425 0 37.0985 0.192 37.5465 0.576001C38.0265 0.960002 38.2665 1.504 38.2665 2.208V3.6C38.2665 4.304 38.0265 4.848 37.5465 5.232C37.0985 5.584 36.4425 5.76 35.5785 5.76C34.7465 5.76 34.0905 5.584 33.6105 5.232C33.1625 4.848 32.9385 4.304 32.9385 3.6V2.208C32.9385 1.504 33.1625 0.960002 33.6105 0.576001C34.0905 0.192 34.7465 0 35.5785 0ZM45.0158 13.104V11.88H58.3822C59.0712 13.0598 59.4157 14.6358 59.4157 16.608V28.5H53.0284C53.8644 27.7502 54.6335 26.7462 55.3358 25.488V21.792C54.1198 21.568 52.8078 21.456 51.3997 21.456C50.0557 21.456 49.0317 21.808 48.3278 22.512C47.6237 23.216 47.2718 24.208 47.2718 25.488V26.016C47.2718 27.0328 47.4724 27.8608 47.8736 28.5H47.4949C46.8341 29.5241 46.5037 30.7175 46.5037 32.08V32.8715C45.8538 32.555 45.2778 32.1098 44.7757 31.536C43.6877 30.256 43.1437 28.512 43.1437 26.304V24.96C43.1437 23.04 43.7998 21.456 45.1117 20.208C46.4237 18.928 48.1838 18.288 50.3918 18.288C51.6077 18.288 53.2557 18.496 55.3358 18.912V16.272C55.3358 14.896 55.0158 13.904 54.3758 13.296C53.7677 12.688 52.8078 12.384 51.4958 12.384C49.9598 12.384 47.7998 12.624 45.0158 13.104ZM47.5344 33.25C48.0634 33.3873 48.6318 33.456 49.2397 33.456C51.5757 33.456 53.6717 32.016 55.5277 29.136V32.88H58.5406C58.5927 32.7907 58.6444 32.7 58.6957 32.608V28.912C57.4797 28.688 56.1677 28.576 54.7597 28.576C53.4157 28.576 52.3917 28.928 51.6877 29.632C50.9837 30.336 50.6317 31.328 50.6317 32.608V33.136C50.6317 33.1743 50.632 33.2123 50.6326 33.25H47.5344ZM84.7552 0.864C86.0033 0.864 87.3473 0.992001 88.7872 1.248C90.2592 1.472 91.1233 1.6 91.3792 1.632L91.2832 5.232C88.4673 4.72 86.2913 4.464 84.7552 4.464C82.5792 4.464 81.0112 4.912 80.0512 5.808C79.676 6.15822 79.3741 6.59889 79.1455 7.13H74.8748L74.862 7.18725C75.2295 5.51975 75.9032 4.196 76.8832 3.216C78.4512 1.648 81.0752 0.864 84.7552 0.864ZM74.5312 11.88H78.6113V24C78.6113 26.08 79.0752 27.568 80.0033 28.464C80.0167 28.4761 80.0302 28.4881 80.0439 28.5H77.8913V30.88C77.8913 31.2405 77.9005 31.5906 77.9188 31.9305C77.5336 31.6847 77.1884 31.4092 76.8832 31.104C75.3152 29.536 74.5312 27.088 74.5312 23.76V11.88ZM81.7654 33.25C82.6696 33.3873 83.6662 33.456 84.7552 33.456C86.0033 33.456 87.3473 33.328 88.7872 33.072C90.2592 32.848 91.1233 32.72 91.3792 32.688L91.2832 28.992C88.4673 29.504 86.2913 29.76 84.7552 29.76C83.679 29.76 82.751 29.6574 81.9712 29.4521V31.12C81.9712 31.9169 82.0394 32.6269 82.1756 33.25H81.7654ZM100.965 12.96C101.219 12.5736 101.482 12.2136 101.753 11.88H108.405V13.584C107.925 13.488 107.301 13.44 106.533 13.44C104.293 13.44 102.517 14.56 101.205 16.8V28.5H100.485V32.88H97.125V11.88H100.965L100.965 12.96ZM128.334 32.88H125.214V29.52C124.35 30.8 123.39 31.776 122.334 32.448C121.278 33.12 120.158 33.456 118.974 33.456C118.35 33.456 117.769 33.3873 117.23 33.25H120.244C120.198 32.8206 120.174 32.3506 120.174 31.84V29.6421C120.919 29.5577 121.687 29.229 122.478 28.656C123.438 27.952 124.27 26.992 124.974 25.776V11.88H129.054V28.5H128.334V32.88ZM117.607 28.5C117.599 28.4881 117.591 28.4761 117.582 28.464C117.07 27.664 116.814 26.416 116.814 24.72V11.88H112.734V25.44C112.734 28.064 113.278 30.064 114.366 31.44C114.862 32.0344 115.438 32.4973 116.096 32.8288C116.095 32.7399 116.094 32.6503 116.094 32.56V28.5H117.607ZM149.765 11.88V12.48L138.917 29.376H142.378L140.118 32.88H134.117V29.856L145.013 12.96H134.357V11.88H149.765ZM144.598 32.88H149.765V29.376H146.848L144.598 32.88Z" fill="white"/>
<path fill-rule="evenodd" clip-rule="evenodd" d="M43.1147 19H39.0347V16.576H43.1147V19ZM63.8543 19H50.4879V16.72C53.4959 16.24 55.6559 16 56.9679 16C59.7199 16 61.7199 16.624 62.9679 17.872C63.3088 18.1958 63.6043 18.5718 63.8543 19ZM84.0834 19H80.0034V17.68C80.0034 16.4081 80.1179 15.2648 80.3469 14.25H84.6177C84.2615 15.0777 84.0834 16.125 84.0834 17.392V19ZM155.237 19H139.829V16.576H155.237V19ZM134.527 19H130.447V16.576H134.527V19ZM122.287 19H118.207V16.576H122.287V19ZM113.877 19H107.225C107.875 18.2007 108.572 17.5527 109.317 17.056C110.405 16.352 111.573 16 112.821 16C113.269 16 113.621 16.032 113.877 16.096V19ZM106.437 19H102.597V16.576H106.437V19ZM32.0683 14.25L32.1118 19H28.125L28.0809 14.25H32.0683ZM5.66455 19L5.70806 14.25H9.6955L9.65135 19H5.66455ZM26.6535 19L28.0583 14.25H24.3313L22.9649 19H26.6535ZM14.8319 19L13.4562 14.25H9.71807L11.1229 19H14.8319Z" fill="#FF5ABE" style="mix-blend-mode:multiply"/>
<path fill-rule="evenodd" clip-rule="evenodd" d="M43.1148 33.25H39.0348V28.5H43.1148V33.25ZM84.2879 33.25H80.156C80.0544 32.517 80.0036 31.727 80.0036 30.88V28.5H84.0836V31.12C84.0836 31.9169 84.1517 32.6269 84.2879 33.25ZM106.677 33.25H102.597V28.5H106.677V33.25ZM146.473 33.25H141.992L145.055 28.5H149.523L146.473 33.25ZM134.527 28.5V33.25H130.234C130.306 33.1345 130.377 33.0165 130.447 32.896V28.5H134.527ZM118.207 28.5H122.287V31.84C122.287 32.3506 122.31 32.8206 122.356 33.25H118.22C118.211 33.025 118.207 32.795 118.207 32.56V28.5ZM64.8881 28.5V33.25H60.4303C60.5583 33.0439 60.6842 32.8299 60.8081 32.608V28.912C59.5921 28.688 58.2801 28.576 56.8721 28.576C55.5281 28.576 54.5041 28.928 53.8001 29.632C53.0961 30.336 52.7441 31.328 52.7441 32.608V33.136C52.7441 33.1743 52.7444 33.2123 52.7449 33.25H48.6161V32.08C48.6161 30.7175 48.9465 29.5241 49.6072 28.5H64.8881ZM32.199 28.5L32.2425 33.25H28.2576L28.2135 28.5H32.199ZM17.5835 28.5L18.9123 33.088L20.2322 28.5H23.8441L22.4393 33.25H15.3374L13.9326 28.5H17.5835ZM5.53418 33.25L5.57769 28.5H9.56323L9.51908 33.25H5.53418Z" fill="#FF5ABE" style="mix-blend-mode:multiply"/>
<path fill-rule="evenodd" clip-rule="evenodd" d="M23.681 32.88L23.4858 11.88H27.4726L27.6249 28.5H26.9341L26.9748 32.88H23.681ZM27.4291 7.13H23.4417L23.441 7.056L23.4191 7.13H19.6922L21.329 1.44H27.377L27.4291 7.13ZM16.769 29.616L22.0143 11.88H18.3257L14.273 25.968L10.1927 11.88H6.48368L11.729 29.616H12.9833L12.6533 28.5H16.3042L16.6274 29.616H16.769ZM7.16901 1.44L8.81699 7.13H5.0789L5.05701 7.056L5.05632 7.13H1.06889L1.12101 1.44H7.16901ZM4.85772 28.5L5.01218 11.88H1.02538L0.833008 32.88H4.25823L4.29835 28.5H4.85772ZM37.7555 32.88V28.5H38.4755L38.4755 11.88H34.3955V32.88H37.7555ZM36.4115 0C37.2755 0 37.9315 0.192 38.3795 0.576001C38.8595 0.960002 39.0995 1.504 39.0995 2.208V3.6C39.0995 4.304 38.8595 4.848 38.3795 5.232C37.9315 5.584 37.2755 5.76 36.4115 5.76C35.5795 5.76 34.9235 5.584 34.4435 5.232C33.9955 4.848 33.7715 4.304 33.7715 3.6V2.208C33.7715 1.504 33.9955 0.960002 34.4435 0.576001C34.9235 0.192 35.5795 0 36.4115 0ZM45.8488 13.104V11.88H59.2152C59.9042 13.0598 60.2488 14.6358 60.2488 16.608V28.5H53.8614C54.6974 27.7502 55.4665 26.7462 56.1688 25.488V21.792C54.9528 21.568 53.6408 21.456 52.2328 21.456C50.8888 21.456 49.8648 21.808 49.1608 22.512C48.4568 23.216 48.1048 24.208 48.1048 25.488V26.016C48.1048 27.0328 48.3054 27.8608 48.7066 28.5H48.3279C47.6671 29.5241 47.3368 30.7175 47.3368 32.08V32.8715C46.6868 32.555 46.1108 32.1098 45.6088 31.536C44.5208 30.256 43.9768 28.512 43.9768 26.304V24.96C43.9768 23.04 44.6328 21.456 45.9448 20.208C47.2568 18.928 49.0168 18.288 51.2248 18.288C52.4408 18.288 54.0888 18.496 56.1688 18.912V16.272C56.1688 14.896 55.8488 13.904 55.2088 13.296C54.6008 12.688 53.6408 12.384 52.3288 12.384C50.7928 12.384 48.6328 12.624 45.8488 13.104ZM48.3674 33.25C48.8964 33.3873 49.4648 33.456 50.0728 33.456C52.4088 33.456 54.5048 32.016 56.3608 29.136V32.88H59.3736C59.4257 32.7907 59.4774 32.7 59.5288 32.608V28.912C58.3128 28.688 57.0008 28.576 55.5928 28.576C54.2488 28.576 53.2248 28.928 52.5208 29.632C51.8168 30.336 51.4648 31.328 51.4648 32.608V33.136C51.4648 33.1743 51.465 33.2123 51.4656 33.25H48.3674ZM85.5883 0.864C86.8363 0.864 88.1803 0.992001 89.6203 1.248C91.0923 1.472 91.9563 1.6 92.2123 1.632L92.1163 5.232C89.3003 4.72 87.1243 4.464 85.5883 4.464C83.4123 4.464 81.8443 4.912 80.8843 5.808C80.509 6.15822 80.2071 6.59889 79.9786 7.13H75.7078L75.695 7.18725C76.0625 5.51975 76.7363 4.196 77.7163 3.216C79.2843 1.648 81.9083 0.864 85.5883 0.864ZM75.3643 11.88H79.4443V24C79.4443 26.08 79.9083 27.568 80.8363 28.464C80.8497 28.4761 80.8632 28.4881 80.8769 28.5H78.7243V30.88C78.7243 31.2405 78.7335 31.5906 78.7519 31.9305C78.3666 31.6847 78.0214 31.4092 77.7163 31.104C76.1483 29.536 75.3643 27.088 75.3643 23.76V11.88ZM82.5984 33.25C83.5026 33.3873 84.4992 33.456 85.5883 33.456C86.8363 33.456 88.1803 33.328 89.6203 33.072C91.0923 32.848 91.9563 32.72 92.2123 32.688L92.1163 28.992C89.3003 29.504 87.1243 29.76 85.5883 29.76C84.512 29.76 83.584 29.6574 82.8043 29.4521V31.12C82.8043 31.9169 82.8724 32.6269 83.0086 33.25H82.5984ZM101.798 12.96C102.052 12.5736 102.315 12.2136 102.586 11.88H109.238V13.584C108.758 13.488 108.134 13.44 107.366 13.44C105.126 13.44 103.35 14.56 102.038 16.8V28.5H101.318V32.88H97.958V11.88H101.798L101.798 12.96ZM129.167 32.88H126.047V29.52C125.183 30.8 124.223 31.776 123.167 32.448C122.111 33.12 120.991 33.456 119.807 33.456C119.183 33.456 118.602 33.3873 118.063 33.25H121.077C121.031 32.8206 121.007 32.3506 121.007 31.84V29.6421C121.752 29.5577 122.52 29.229 123.311 28.656C124.271 27.952 125.103 26.992 125.807 25.776V11.88H129.887V28.5H129.167V32.88ZM118.44 28.5C118.432 28.4881 118.424 28.4761 118.415 28.464C117.903 27.664 117.647 26.416 117.647 24.72V11.88H113.567V25.44C113.567 28.064 114.111 30.064 115.199 31.44C115.695 32.0344 116.271 32.4973 116.929 32.8288C116.928 32.7399 116.927 32.6503 116.927 32.56V28.5H118.44ZM150.598 11.88V12.48L139.75 29.376H143.211L140.951 32.88H134.95V29.856L145.846 12.96H135.19V11.88H150.598ZM145.432 32.88H150.598V29.376H147.681L145.432 32.88Z" fill="#FF5ABE" style="mix-blend-mode:multiply"/>
<path fill-rule="evenodd" clip-rule="evenodd" d="M42.2817 19H38.2017V16.576H42.2817V19ZM63.0213 19H49.6549V16.72C52.6629 16.24 54.8229 16 56.1349 16C58.8869 16 60.8869 16.624 62.1349 17.872C62.4758 18.1958 62.7712 18.5718 63.0213 19ZM83.2504 19H79.1704V17.68C79.1704 16.4081 79.2849 15.2648 79.5139 14.25H83.7847C83.4285 15.0777 83.2504 16.125 83.2504 17.392V19ZM154.404 19H138.996V16.576H154.404V19ZM133.694 19H129.614V16.576H133.694V19ZM121.454 19H117.374V16.576H121.454V19ZM113.044 19H106.392C107.042 18.2007 107.739 17.5527 108.484 17.056C109.572 16.352 110.74 16 111.988 16C112.436 16 112.788 16.032 113.044 16.096V19ZM105.604 19H101.764V16.576H105.604V19ZM31.2353 14.25L31.2788 19H27.292L27.2479 14.25H31.2353ZM4.83154 19L4.87505 14.25H8.86249L8.81834 19H4.83154ZM25.8205 19L27.2253 14.25H23.4983L22.1319 19H25.8205ZM13.9989 19L12.6232 14.25H8.88506L10.2899 19H13.9989Z" fill="#5AFFBA" style="mix-blend-mode:multiply"/>
<path fill-rule="evenodd" clip-rule="evenodd" d="M42.2818 33.25H38.2018V28.5H42.2818V33.25ZM83.4549 33.25H79.3229C79.2214 32.517 79.1706 31.727 79.1706 30.88V28.5H83.2506V31.12C83.2506 31.9169 83.3187 32.6269 83.4549 33.25ZM105.844 33.25H101.764V28.5H105.844V33.25ZM145.64 33.25H141.159L144.222 28.5H148.69L145.64 33.25ZM133.694 28.5V33.25H129.401C129.473 33.1345 129.544 33.0165 129.614 32.896V28.5H133.694ZM117.374 28.5H121.454V31.84C121.454 32.3506 121.477 32.8206 121.523 33.25H117.387C117.378 33.025 117.374 32.795 117.374 32.56V28.5ZM64.0551 28.5V33.25H59.5973C59.7253 33.0439 59.8512 32.8299 59.9751 32.608V28.912C58.7591 28.688 57.4471 28.576 56.0391 28.576C54.6951 28.576 53.6711 28.928 52.9671 29.632C52.2631 30.336 51.9111 31.328 51.9111 32.608V33.136C51.9111 33.1743 51.9114 33.2123 51.9119 33.25H47.7831V32.08C47.7831 30.7175 48.1135 29.5241 48.7742 28.5H64.0551ZM31.366 28.5L31.4095 33.25H27.4246L27.3805 28.5H31.366ZM16.7505 28.5L18.0793 33.088L19.3992 28.5H23.0111L21.6063 33.25H14.5044L13.0996 28.5H16.7505ZM4.70117 33.25L4.74468 28.5H8.73022L8.68607 33.25H4.70117Z" fill="#5AFFBA" style="mix-blend-mode:multiply"/>
<path fill-rule="evenodd" clip-rule="evenodd" d="M22.848 32.88L22.6528 11.88H26.6396L26.7919 28.5H26.1011L26.1418 32.88H22.848ZM26.5961 7.13H22.6087L22.608 7.056L22.5861 7.13H18.8592L20.496 1.44H26.544L26.5961 7.13ZM15.936 29.616L21.1813 11.88H17.4927L13.44 25.968L9.35972 11.88H5.65067L10.896 29.616H12.1503L11.8202 28.5H15.4712L15.7944 29.616H15.936ZM6.336 1.44L7.98399 7.13H4.24589L4.224 7.056L4.22331 7.13H0.235879L0.288 1.44H6.336ZM4.02471 28.5L4.17917 11.88H0.192368L0 32.88H3.42522L3.46534 28.5H4.02471ZM36.9225 32.88V28.5H37.6425L37.6425 11.88H33.5625V32.88H36.9225ZM35.5785 0C36.4425 0 37.0985 0.192 37.5465 0.576001C38.0265 0.960002 38.2665 1.504 38.2665 2.208V3.6C38.2665 4.304 38.0265 4.848 37.5465 5.232C37.0985 5.584 36.4425 5.76 35.5785 5.76C34.7465 5.76 34.0905 5.584 33.6105 5.232C33.1625 4.848 32.9385 4.304 32.9385 3.6V2.208C32.9385 1.504 33.1625 0.960002 33.6105 0.576001C34.0905 0.192 34.7465 0 35.5785 0ZM45.0158 13.104V11.88H58.3822C59.0712 13.0598 59.4157 14.6358 59.4157 16.608V28.5H53.0284C53.8644 27.7502 54.6335 26.7462 55.3358 25.488V21.792C54.1198 21.568 52.8078 21.456 51.3997 21.456C50.0557 21.456 49.0317 21.808 48.3278 22.512C47.6237 23.216 47.2718 24.208 47.2718 25.488V26.016C47.2718 27.0328 47.4724 27.8608 47.8736 28.5H47.4949C46.8341 29.5241 46.5037 30.7175 46.5037 32.08V32.8715C45.8538 32.555 45.2778 32.1098 44.7757 31.536C43.6877 30.256 43.1437 28.512 43.1437 26.304V24.96C43.1437 23.04 43.7998 21.456 45.1117 20.208C46.4237 18.928 48.1838 18.288 50.3918 18.288C51.6077 18.288 53.2557 18.496 55.3358 18.912V16.272C55.3358 14.896 55.0158 13.904 54.3758 13.296C53.7677 12.688 52.8078 12.384 51.4958 12.384C49.9598 12.384 47.7998 12.624 45.0158 13.104ZM47.5344 33.25C48.0634 33.3873 48.6318 33.456 49.2397 33.456C51.5757 33.456 53.6717 32.016 55.5277 29.136V32.88H58.5406C58.5927 32.7907 58.6444 32.7 58.6957 32.608V28.912C57.4797 28.688 56.1677 28.576 54.7597 28.576C53.4157 28.576 52.3917 28.928 51.6877 29.632C50.9837 30.336 50.6317 31.328 50.6317 32.608V33.136C50.6317 33.1743 50.632 33.2123 50.6326 33.25H47.5344ZM84.7552 0.864C86.0033 0.864 87.3473 0.992001 88.7872 1.248C90.2592 1.472 91.1233 1.6 91.3792 1.632L91.2832 5.232C88.4673 4.72 86.2913 4.464 84.7552 4.464C82.5792 4.464 81.0112 4.912 80.0512 5.808C79.676 6.15822 79.3741 6.59889 79.1455 7.13H74.8748L74.862 7.18725C75.2295 5.51975 75.9032 4.196 76.8832 3.216C78.4512 1.648 81.0752 0.864 84.7552 0.864ZM74.5312 11.88H78.6113V24C78.6113 26.08 79.0752 27.568 80.0033 28.464C80.0167 28.4761 80.0302 28.4881 80.0439 28.5H77.8913V30.88C77.8913 31.2405 77.9005 31.5906 77.9188 31.9305C77.5336 31.6847 77.1884 31.4092 76.8832 31.104C75.3152 29.536 74.5312 27.088 74.5312 23.76V11.88ZM81.7654 33.25C82.6696 33.3873 83.6662 33.456 84.7552 33.456C86.0033 33.456 87.3473 33.328 88.7872 33.072C90.2592 32.848 91.1233 32.72 91.3792 32.688L91.2832 28.992C88.4673 29.504 86.2913 29.76 84.7552 29.76C83.679 29.76 82.751 29.6574 81.9712 29.4521V31.12C81.9712 31.9169 82.0394 32.6269 82.1756 33.25H81.7654ZM100.965 12.96C101.219 12.5736 101.482 12.2136 101.753 11.88H108.405V13.584C107.925 13.488 107.301 13.44 106.533 13.44C104.293 13.44 102.517 14.56 101.205 16.8V28.5H100.485V32.88H97.125V11.88H100.965L100.965 12.96ZM128.334 32.88H125.214V29.52C124.35 30.8 123.39 31.776 122.334 32.448C121.278 33.12 120.158 33.456 118.974 33.456C118.35 33.456 117.769 33.3873 117.23 33.25H120.244C120.198 32.8206 120.174 32.3506 120.174 31.84V29.6421C120.919 29.5577 121.687 29.229 122.478 28.656C123.438 27.952 124.27 26.992 124.974 25.776V11.88H129.054V28.5H128.334V32.88ZM117.607 28.5C117.599 28.4881 117.591 28.4761 117.582 28.464C117.07 27.664 116.814 26.416 116.814 24.72V11.88H112.734V25.44C112.734 28.064 113.278 30.064 114.366 31.44C114.862 32.0344 115.438 32.4973 116.096 32.8288C116.095 32.7399 116.094 32.6503 116.094 32.56V28.5H117.607ZM149.765 11.88V12.48L138.917 29.376H142.378L140.118 32.88H134.117V29.856L145.013 12.96H134.357V11.88H149.765ZM144.598 32.88H149.765V29.376H146.848L144.598 32.88Z" fill="#5AFFBA" style="mix-blend-mode:multiply"/>
</svg>
