<svg width="284" height="84" viewBox="0 0 284 84" fill="none" xmlns="http://www.w3.org/2000/svg">
<path d="M45.744 18C49.84 18 52.976 19.408 55.152 22.224C57.328 24.976 58.416 28.912 58.416 34.032V66H50.256V35.184C50.256 28.784 48.208 25.584 44.112 25.584C42.32 25.584 40.464 26.288 38.544 27.696C36.688 29.104 35.056 31.024 33.648 33.456V66H25.488V35.184C25.488 28.784 23.44 25.584 19.344 25.584C17.552 25.584 15.696 26.288 13.776 27.696C11.92 29.104 10.288 31.024 8.88 33.456V66H0.72V19.152H8.4V26.16C10.064 23.536 11.984 21.52 14.16 20.112C16.336 18.704 18.608 18 20.976 18C23.92 18 26.384 18.768 28.368 20.304C30.352 21.776 31.792 23.952 32.688 26.832C34.416 23.952 36.4 21.776 38.64 20.304C40.88 18.768 43.248 18 45.744 18ZM106.052 19.152L84.5483 83.76H76.3883L82.5323 66H79.4603L66.1163 19.152H75.0443L85.1243 60.144L97.6043 19.152H106.052ZM121.369 25.392C123.033 23.024 124.953 21.2 127.129 19.92C129.305 18.64 131.577 18 133.945 18C137.913 18 140.985 19.408 143.161 22.224C145.337 24.976 146.425 29.008 146.425 34.32V49.488C146.425 55.312 145.049 59.728 142.297 62.736C139.545 65.68 135.289 67.152 129.529 67.152C123.897 67.152 119.769 65.712 117.145 62.832C114.521 59.952 113.209 55.568 113.209 49.68V0.431997H121.369V25.392ZM132.025 25.296C130.169 25.296 128.281 26 126.361 27.408C124.441 28.816 122.777 30.736 121.369 33.168V50.64C121.369 53.776 122.073 56.176 123.481 57.84C124.953 59.504 126.969 60.336 129.529 60.336C135.353 60.336 138.265 57.04 138.265 50.448V35.472C138.265 28.688 136.185 25.296 132.025 25.296ZM174.812 18C180.508 18 184.732 19.536 187.484 22.608C190.3 25.616 191.708 29.904 191.708 35.472V49.68C191.708 55.248 190.3 59.568 187.484 62.64C184.732 65.648 180.508 67.152 174.812 67.152C169.116 67.152 164.86 65.648 162.044 62.64C159.292 59.568 157.916 55.248 157.916 49.68V35.472C157.916 29.904 159.292 25.616 162.044 22.608C164.86 19.536 169.116 18 174.812 18ZM174.812 24.816C172.06 24.816 169.916 25.68 168.38 27.408C166.844 29.136 166.076 31.6 166.076 34.8V50.352C166.076 53.552 166.844 56.016 168.38 57.744C169.916 59.472 172.06 60.336 174.812 60.336C177.564 60.336 179.708 59.472 181.244 57.744C182.78 56.016 183.548 53.552 183.548 50.352V34.704C183.548 31.504 182.78 29.072 181.244 27.408C179.708 25.68 177.564 24.816 174.812 24.816ZM220.094 18C225.79 18 230.014 19.536 232.766 22.608C235.582 25.616 236.99 29.904 236.99 35.472V49.68C236.99 55.248 235.582 59.568 232.766 62.64C230.014 65.648 225.79 67.152 220.094 67.152C214.398 67.152 210.142 65.648 207.326 62.64C204.574 59.568 203.198 55.248 203.198 49.68V35.472C203.198 29.904 204.574 25.616 207.326 22.608C210.142 19.536 214.398 18 220.094 18ZM220.094 24.816C217.342 24.816 215.198 25.68 213.662 27.408C212.126 29.136 211.358 31.6 211.358 34.8V50.352C211.358 53.552 212.126 56.016 213.662 57.744C215.198 59.472 217.342 60.336 220.094 60.336C222.846 60.336 224.99 59.472 226.526 57.744C228.062 56.016 228.83 53.552 228.83 50.352V34.704C228.83 31.504 228.062 29.072 226.526 27.408C224.99 25.68 222.846 24.816 220.094 24.816ZM257.599 0.431997V39.696L272.959 19.152H282.079L266.143 39.696L283.231 66H273.439L257.599 40.848V66H249.439V0.431997H257.599Z" fill="#F7FAF8"/>
</svg>
